<svg version="1.1" preserveAspectRatio="none" xmlns="http://www.w3.org/2000/svg" width="500" height="500" viewBox="0 0 500 500"><rect width="100%" height="100%" fill="#FFFFFF" fill-opacity="1"/><svg viewBox="65.9406 182.6062 347.944 247.6439" width="333" height="237.0077331409652" x="83.5px" y="131.4961px" xmlns="http://www.w3.org/2000/svg" xmlns:xlink="http://www.w3.org/1999/xlink" preserveAspectRatio="none"><defs></defs><style>.companyName {fill:#1C1C1C;fill-opacity:1;}.icon1 {fill:#1C1C1C;fill-opacity:1;}.icon2 {fill:#BAAE57;fill-opacity:1;}.icon3 {fill:#E192BB;fill-opacity:1;}.icon3-str {stroke:#E192BB;stroke-opacity:1;}</style><g opacity="1" transform="rotate(0 65.9406 370.2501)">
<svg width="347.944" height="60" x="65.9406" y="370.2501" version="1.1" preserveAspectRatio="none" viewBox="1.2 -26.8 158.20000000000002 27.28">
  <g transform="matrix(1 0 0 1 0 0)" class="companyName"><path id="id-D6z1nYkh7" d="M30.16-22.40L30.16-21.60L28.16-21.60L28.16-0.80L30.16-0.80L30.16 0L20.16 0L20.16-0.80L22.16-0.80L22.16-20.12L14.24 0.40L13.32 0.40L4.44-20.68L4.44-0.80L7.64-0.80L7.64 0L1.24 0L1.24-0.80L3.64-0.80L3.64-21.60L1.20-21.60L1.20-22.40L10.12-22.40L16.36-7.40L22.16-22.40L30.16-22.40Z M39.56-2.42Q40.44-0.40 42.60-0.40Q44.76-0.40 45.68-2.44Q46.60-4.48 46.60-9.18Q46.60-13.88 45.68-15.94Q44.76-18 42.60-18Q40.44-18 39.56-15.94Q38.68-13.88 38.68-9.16Q38.68-4.44 39.56-2.42ZM42.52 0.40Q38.72 0.40 35.64-2.08Q32.56-4.56 32.56-9.12L32.56-9.12Q32.56-11.56 33.46-13.48Q34.36-15.40 35.86-16.52Q37.36-17.64 39.08-18.22Q40.80-18.80 42.60-18.80Q44.40-18.80 46.14-18.22Q47.88-17.64 49.38-16.52Q50.88-15.40 51.80-13.48Q52.72-11.56 52.72-9.16Q52.72-6.76 51.80-4.88Q50.88-3 49.36-1.88L49.36-1.88Q46.32 0.40 42.52 0.40Z M62.32-15.76L62.32-6.24Q62.32-3.20 63-1.86Q63.68-0.52 65.18-0.52Q66.68-0.52 67.84-2.78Q69-5.04 69-9.14Q69-13.24 67.78-15.44Q66.56-17.64 64.92-17.64Q63.28-17.64 62.32-15.76L62.32-15.76ZM71.72-1.42Q70.24-0.44 68.84-0.04Q67.44 0.36 66.10 0.36Q64.76 0.36 63.64-0.14Q62.52-0.64 61.86-1.22Q61.20-1.80 60.40-2.30Q59.60-2.80 58.88-2.80Q58.16-2.80 57.62-2Q57.08-1.20 57.08 0L57.08 0L56.32 0L56.32-26L54.32-26L54.32-26.80L62.32-26.80L62.32-16.96Q62.96-18.04 64.42-18.66Q65.88-19.28 67.48-19.28L67.48-19.28Q70.52-19.28 72.78-16.62Q75.04-13.96 75.04-9.20L75.04-9.20Q75.04-6.40 74.12-4.40Q73.20-2.40 71.72-1.42Z M95.84-7.60L95.84-7.60L96.64-7.60L96.64 0L77.84 0L77.84-0.80L79.84-0.80L79.84-21.60L77.84-21.60L77.84-22.40L88.24-22.40L88.24-21.60L85.84-21.60L85.84-0.80L89.84-0.80Q91.20-0.80 92.10-1Q93.00-1.20 93.96-1.84L93.96-1.84Q95.84-3.08 95.84-7.60Z M118.04-0.80Q117.64-0.40 116.52-0.10Q115.40 0.20 113.92 0.20L113.92 0.20Q110.64 0.20 109.80-1.76L109.80-1.76Q107.80 0.32 103.68 0.32L103.68 0.32Q101.48 0.32 100.06-0.70Q98.64-1.72 98.64-3.72L98.64-3.72Q98.64-6.40 100.72-7.86Q102.80-9.32 108-9.92L108-9.92L109.60-10.12L109.60-12.08Q109.60-15.56 109.08-16.76Q108.56-17.96 107.02-17.96Q105.48-17.96 105.04-17.54Q104.60-17.12 104.72-16.58Q104.84-16.04 105.12-15.16Q105.40-14.28 105.40-13.76L105.40-13.76Q105.40-12.52 104.54-11.66Q103.68-10.80 102.46-10.80Q101.24-10.80 100.36-11.66Q99.48-12.52 99.48-13.76L99.48-13.76Q99.48-15.80 101.58-17.26Q103.68-18.72 107.86-18.72Q112.04-18.72 113.82-17.08Q115.60-15.44 115.60-11.28L115.60-11.28L115.60-4.08Q115.60-1.96 116.12-1.42Q116.64-0.88 118.04-1.20L118.04-1.20L118.04-0.80ZM104.20-4.52Q104.40-3 105.32-2.18Q106.24-1.36 107.46-1.36Q108.68-1.36 109.60-2.56L109.60-2.56L109.60-9.36L108.16-9.16Q106.32-8.92 105.18-7.76Q104.04-6.60 104.20-4.52L104.20-4.52Z M127.24-15.76L127.24-6.24Q127.24-3.20 127.92-1.86Q128.60-0.52 130.10-0.52Q131.60-0.52 132.76-2.78Q133.92-5.04 133.92-9.14Q133.92-13.24 132.70-15.44Q131.48-17.64 129.84-17.64Q128.20-17.64 127.24-15.76L127.24-15.76ZM136.64-1.42Q135.16-0.44 133.76-0.04Q132.36 0.36 131.02 0.36Q129.68 0.36 128.56-0.14Q127.44-0.64 126.78-1.22Q126.12-1.80 125.32-2.30Q124.52-2.80 123.80-2.80Q123.08-2.80 122.54-2Q122-1.20 122 0L122 0L121.24 0L121.24-26L119.24-26L119.24-26.80L127.24-26.80L127.24-16.96Q127.88-18.04 129.34-18.66Q130.80-19.28 132.40-19.28L132.40-19.28Q135.44-19.28 137.70-16.62Q139.96-13.96 139.96-9.20L139.96-9.20Q139.96-6.40 139.04-4.40Q138.12-2.40 136.64-1.42Z M151.56-0.32L151.56-0.32Q155.72-0.32 155.72-2.60L155.72-2.60Q155.72-3.88 154.28-4.70Q152.84-5.52 150.80-6.04Q148.76-6.56 146.78-7.24Q144.80-7.92 143.50-9.40Q142.20-10.88 142.44-13.28Q142.68-15.68 144.90-17.24Q147.12-18.80 150.38-18.80Q153.64-18.80 155.64-17.76Q157.64-16.72 157.88-14.96L157.88-14.96Q158.04-13.88 157.54-12.96Q157.04-12.04 155.90-12Q154.76-11.96 154.02-12.60Q153.28-13.24 153.32-14.08Q153.36-14.92 153.96-15.58Q154.56-16.24 154.56-16.64L154.56-16.64Q154.56-17.32 153.26-17.66Q151.96-18 150.26-18Q148.56-18 147.48-17.24Q146.40-16.48 146.40-15.36Q146.40-14.24 147.74-13.44Q149.08-12.64 151-12.14Q152.92-11.64 154.82-11.02Q156.72-10.40 158.06-9.04Q159.40-7.68 159.40-5.60L159.40-5.60Q159.40-2.84 157.44-1.18Q155.48 0.48 151.52 0.48Q147.56 0.48 145.10-0.72Q142.64-1.92 142.40-3.80L142.40-3.80Q142.24-4.88 142.76-5.80Q143.28-6.72 144.40-6.76Q145.52-6.80 146.26-6.16Q147-5.52 146.96-4.68Q146.92-3.84 146.32-3.18Q145.72-2.52 145.72-2.12L145.72-2.12Q145.72-1.32 147.58-0.82Q149.44-0.32 151.56-0.32Z"/></g>
</svg>
</g><g opacity="1" transform="rotate(0 170.3238 182.6062)">
<svg width="139.1776" height="147.6439" x="170.3238" y="182.6062" version="1.1" preserveAspectRatio="none" viewBox="22.665998458862305 16.393001556396484 57.70100402832031 61.210994720458984">
  <g transform="matrix(1 0 0 1 0 0)" class="icon1"><path d="M76.889,56.433V35.015c0-0.714-0.384-1.375-1-1.732l-18.952-10.94c0.012-0.146,0.022-0.292,0.022-0.441  c0-3.038-2.471-5.509-5.51-5.509c-3.037,0-5.508,2.471-5.508,5.509c0,0.149,0.011,0.296,0.022,0.442l-15.309,8.838  c-0.747-0.378-1.588-0.597-2.48-0.597c-3.037,0-5.508,2.471-5.508,5.509c0,2.272,1.383,4.226,3.35,5.067v20.914  c0,0.712,0.381,1.373,1,1.732l23.433,13.529c0.311,0.18,0.656,0.268,1,0.268c0.348,0,0.691-0.086,1-0.267l19.386-11.19  c0.869,0.574,1.907,0.91,3.024,0.91c3.037,0,5.508-2.472,5.508-5.509C80.367,59.229,78.924,57.242,76.889,56.433z M53.449,27.03  c0.645-0.252,1.229-0.622,1.729-1.083l16.55,9.552l-4.495,2.39c-0.992-0.957-2.338-1.549-3.822-1.549  c-0.938,0-1.82,0.237-2.595,0.652l-7.366-4.253V27.03z M61.902,41.849c0-0.832,0.676-1.508,1.508-1.508s1.512,0.676,1.512,1.508  s-0.68,1.51-1.512,1.51S61.902,42.681,61.902,41.849z M62.139,47.204v4.759l-6.429-3.418l4.367-2.322  C60.68,46.684,61.378,47.022,62.139,47.204z M53.449,37.356l4.744,2.739c-0.186,0.551-0.291,1.139-0.291,1.752  c0,0.326,0.034,0.644,0.089,0.954l-4.542,2.415V37.356z M53.449,51.874l7.086,3.768l-4.29,2.476  c-0.621-1.099-1.608-1.961-2.796-2.426V51.874z M28.174,34.587c0.832,0,1.51,0.677,1.51,1.509s-0.678,1.509-1.51,1.509  s-1.508-0.677-1.508-1.509S27.342,34.587,28.174,34.587z M30.016,41.28c0.623-0.222,1.196-0.549,1.693-0.966L36.761,43V54.09  l-6.745,3.586V41.28z M49.449,72.141L31.176,61.589l7.023-3.734l7.995,4.616c0.501,1.594,1.71,2.872,3.255,3.477V72.141z   M49.449,55.692c-1.187,0.465-2.173,1.327-2.795,2.425l-4.29-2.477l7.085-3.767V55.692z M40.762,51.963v-6.835l6.427,3.417  L40.762,51.963z M49.449,45.216l-7.085-3.767l7.085-4.092V45.216z M49.449,32.739l-11.25,6.496l-4.566-2.428  c0.03-0.234,0.051-0.47,0.051-0.712c0-0.651-0.12-1.274-0.328-1.854l14.365-8.295c0.5,0.461,1.084,0.832,1.728,1.084V32.739z   M51.449,62.33c-0.832,0-1.508-0.678-1.508-1.508c0-0.834,0.676-1.51,1.508-1.51s1.51,0.674,1.51,1.51  C52.959,61.652,52.281,62.33,51.449,62.33z M51.449,23.412c-0.832,0-1.508-0.677-1.508-1.509s0.676-1.509,1.508-1.509  s1.51,0.677,1.51,1.509S52.281,23.412,51.449,23.412z M53.449,72.142v-6.193c1.546-0.605,2.755-1.885,3.257-3.478l7.993-4.615  l4.776,2.539c-0.08,0.373-0.124,0.759-0.124,1.155c0,0.454,0.062,0.893,0.165,1.315L53.449,72.142z M72.889,56.411  c-0.425,0.163-0.824,0.376-1.191,0.634l-5.559-2.955v-7.46c1.66-0.951,2.783-2.735,2.783-4.781c0-0.108-0.01-0.213-0.017-0.319  l3.983-2.118V56.411z M74.859,63.059c-0.832,0-1.508-0.677-1.508-1.509s0.676-1.51,1.508-1.51s1.508,0.678,1.508,1.51  S75.691,63.059,74.859,63.059z"></path></g>
</svg>
</g></svg></svg>